<?xml version="1.0" standalone="no"?>
<!DOCTYPE svg PUBLIC "-//W3C//DTD SVG 20010904//EN"
 "http://www.w3.org/TR/2001/REC-SVG-20010904/DTD/svg10.dtd">
<svg version="1.0" xmlns="http://www.w3.org/2000/svg"
 width="600.000000pt" height="400.000000pt" viewBox="0 0 600.000000 400.000000"
 preserveAspectRatio="xMidYMid meet">
<metadata>
Created by potrace 1.16, written by Peter Selinger 2001-2019
</metadata>
<g transform="translate(0.000000,400.000000) scale(0.100000,-0.100000)"
fill="#000000" stroke="none">
<path d="M3550 2647 c0 -2 27 -23 60 -47 53 -39 58 -44 42 -56 -15 -11 -10
-14 38 -20 41 -5 62 -14 84 -36 18 -19 36 -28 48 -25 17 5 127 -68 143 -94 13
-19 -9 -7 -62 36 -44 36 -63 45 -92 45 -20 0 -198 4 -396 9 -198 5 -496 12
-662 15 l-302 4 -118 -59 c-135 -67 -119 -69 24 -3 87 41 98 43 124 32 39 -18
36 -25 -13 -33 -23 -4 -83 -20 -132 -36 -49 -16 -101 -28 -115 -27 -15 1 -44
-8 -66 -20 -22 -12 -60 -30 -85 -41 -25 -10 -54 -27 -65 -36 -13 -11 -7 -9 16
4 20 12 39 21 41 21 3 0 11 -27 19 -60 7 -33 17 -60 21 -60 4 0 8 -11 8 -24 0
-13 7 -27 16 -30 8 -3 13 -10 10 -14 -3 -5 4 -23 15 -42 14 -22 18 -41 14 -58
-6 -23 -4 -24 10 -12 15 13 16 10 9 -25 -6 -32 -4 -37 9 -32 16 6 17 -8 3 -32
-7 -11 -4 -13 15 -8 33 8 60 -8 30 -18 -21 -6 -30 -35 -10 -35 5 0 7 5 3 12
-5 7 -3 8 5 3 7 -4 11 -18 8 -31 -3 -16 0 -24 9 -24 8 0 14 -7 14 -16 0 -11 6
-15 18 -12 17 5 17 4 13 -75 0 -14 -11 -29 -23 -35 -20 -10 -18 -11 20 -9 28
1 41 6 38 14 -3 7 -1 15 4 18 6 4 10 0 10 -7 0 -10 3 -9 9 2 6 8 7 18 4 24 -3
5 -1 6 5 3 5 -4 22 7 36 24 27 31 33 49 17 49 -5 0 -12 7 -15 16 -3 8 -2 12 4
9 6 -3 10 0 10 7 0 7 7 2 16 -10 8 -12 24 -22 34 -22 10 0 20 -6 23 -12 11
-33 -41 -105 -68 -94 -11 4 -15 2 -12 -6 2 -7 10 -12 16 -10 14 3 6 -70 -10
-101 -7 -12 -7 -23 1 -32 8 -10 8 -14 -2 -18 -10 -4 -9 -6 1 -6 12 -1 11 -4
-3 -14 -16 -12 -16 -13 4 -13 15 0 20 5 17 18 -3 10 -1 18 3 18 4 0 11 24 15
53 8 54 29 117 41 117 3 0 4 -13 1 -29 -8 -39 2 -71 19 -64 8 3 14 -1 14 -11
0 -9 -3 -16 -7 -16 -10 0 -9 -72 1 -88 11 -19 -4 -54 -20 -48 -23 9 -42 -4
-37 -25 3 -12 0 -19 -8 -19 -11 0 -11 -2 1 -10 13 -8 12 -10 -3 -10 -16 0 -17
6 -12 44 5 28 3 46 -4 50 -6 4 -11 0 -11 -8 0 -17 -12 -19 -46 -10 -19 5 -21
10 -13 42 4 21 15 54 24 74 19 48 19 59 -2 51 -12 -5 -15 -2 -10 10 5 13 1 17
-19 17 -13 0 -27 -7 -30 -15 -4 -8 -17 -15 -30 -15 -27 0 -32 -17 -9 -26 8 -4
12 -10 9 -15 -3 -6 0 -17 7 -25 9 -11 9 -18 2 -22 -6 -4 -8 -22 -6 -39 3 -19
10 -30 16 -26 6 3 7 1 3 -5 -4 -7 -14 -12 -22 -12 -24 0 -74 -29 -74 -43 0 -8
3 -8 9 2 5 7 27 17 50 21 32 6 41 4 41 -7 0 -8 -5 -11 -12 -7 -10 6 -10 4 0
-7 19 -20 15 -43 -12 -66 -17 -15 -23 -28 -19 -42 7 -29 23 -37 23 -12 0 11 3
22 8 24 8 6 7 -113 -2 -149 -4 -13 -12 -22 -19 -20 -6 1 -9 1 -4 -1 10 -6 9
-33 -2 -33 -5 0 -13 -9 -16 -20 -4 -11 -10 -18 -14 -16 -4 3 -8 -1 -8 -9 0
-25 14 -17 36 21 12 20 24 34 27 31 4 -3 -4 -20 -15 -36 -12 -17 -24 -40 -26
-53 -3 -12 -10 -25 -16 -29 -7 -4 -9 -15 -5 -24 8 -21 -18 -65 -38 -65 -8 0
-16 5 -18 12 -2 6 -10 8 -16 4 -17 -10 -15 -26 3 -26 8 0 15 -5 15 -12 0 -6 9
-3 20 7 11 10 20 13 20 7 0 -7 11 -12 24 -12 27 0 56 -28 39 -38 -12 -8 -13
-42 -1 -42 4 0 8 5 8 11 0 5 5 7 10 4 16 -10 12 -25 -7 -25 -13 0 -14 -3 -6
-8 9 -6 4 -15 -17 -34 -17 -14 -30 -21 -30 -15 0 6 -7 2 -16 -9 -15 -18 -15
-18 -8 5 4 16 3 21 -5 17 -6 -4 -11 -15 -11 -24 -1 -16 -1 -16 -13 0 -7 9 -13
36 -12 60 l1 43 42 -3 c25 -2 42 1 42 7 0 6 -18 11 -39 11 -31 0 -41 4 -46 20
-3 11 -13 20 -21 20 -8 0 -13 -4 -10 -9 3 -5 -1 -11 -9 -15 -18 -7 -87 32 -79
45 3 5 1 9 -3 9 -5 0 -9 9 -10 20 -1 11 2 20 5 20 4 0 8 9 9 20 1 11 -3 20 -8
20 -6 0 -8 -4 -4 -9 3 -5 -2 -16 -10 -25 -8 -8 -15 -19 -14 -23 4 -24 -4 -33
-28 -32 -27 0 -27 1 -5 9 43 18 23 30 -47 30 -73 0 -98 13 -67 36 16 11 14 14
-18 25 -31 11 -38 20 -55 74 -11 34 -18 70 -15 81 3 10 -1 39 -8 64 -19 62
-13 85 34 129 l40 39 -10 53 c-5 30 -10 44 -11 32 0 -13 -6 -23 -11 -23 -31 0
-75 -75 -63 -107 4 -10 2 -14 -4 -10 -6 4 -19 4 -28 1 -14 -6 -14 -8 0 -24 14
-16 14 -18 0 -23 -8 -4 -15 -15 -15 -25 0 -10 -16 -33 -35 -52 -19 -18 -32
-37 -29 -42 9 -14 -6 -79 -17 -73 -5 4 -9 2 -9 -3 0 -6 -9 -8 -21 -5 -16 4
-17 8 -7 14 12 8 4 13 -14 10 -5 0 -8 5 -8 13 0 27 -16 25 -18 -1 -4 -44 -12
-39 -13 8 0 33 -2 39 -9 24 -4 -11 -6 -30 -3 -42 7 -30 -10 -30 -26 -1 -9 19
-11 19 -6 3 5 -19 -14 1 -122 121 -27 31 -42 40 -60 36 -26 -5 -21 -22 6 -22
10 0 26 -10 37 -22 10 -12 13 -18 6 -14 -9 5 -15 1 -19 -13 -3 -14 -13 -21
-28 -21 -33 0 -55 -10 -55 -25 0 -7 6 -16 13 -18 6 -3 2 -6 -10 -6 -26 -1 -34
10 -35 49 -1 17 -4 33 -8 35 -10 6 8 86 21 100 5 5 9 16 9 24 0 10 -7 8 -26
-10 -19 -18 -24 -32 -22 -57 2 -21 -3 -38 -12 -45 -13 -10 -15 -40 -13 -172 1
-88 7 -200 12 -250 9 -80 13 -92 38 -112 15 -12 40 -25 55 -28 26 -6 26 -7 13
-38 -12 -29 -24 -135 -27 -229 -1 -27 -6 -38 -17 -38 -12 0 -12 -3 -3 -12 7
-7 12 -22 12 -34 0 -17 -5 -21 -19 -17 -22 6 -38 -25 -16 -33 8 -3 19 -3 25 1
5 3 10 1 10 -4 0 -9 -64 -17 -93 -12 -5 1 -34 3 -65 4 -31 1 -62 6 -69 10 -8
5 -11 1 -8 -14 2 -12 6 -24 8 -26 7 -6 76 -12 155 -12 l74 -1 -4 -73 -3 -72
30 -3 c18 -2 25 1 18 5 -17 12 -26 82 -14 118 9 28 9 27 10 -17 l1 -48 38 -2
c20 0 46 0 56 1 18 1 18 0 3 -17 -24 -27 -22 -29 30 -30 25 -1 50 -6 53 -13 6
-8 9 -8 14 0 5 7 24 9 54 4 26 -3 76 -6 112 -5 36 0 71 -4 79 -11 12 -9 13 -9
7 1 -4 7 -1 12 8 12 10 0 13 -6 10 -15 -4 -8 -1 -15 5 -15 6 0 11 5 11 10 0 6
10 10 23 9 12 0 16 -3 10 -6 -43 -17 7 -23 180 -23 177 1 190 2 164 16 -15 8
-32 12 -38 8 -6 -3 -19 3 -30 15 -11 12 -24 21 -29 21 -6 0 -10 17 -11 38 0
30 -2 33 -9 17 -7 -14 -9 -4 -7 35 2 50 4 55 27 58 14 2 33 11 42 19 10 9 31
13 52 12 27 -3 39 2 51 17 8 12 11 25 7 29 -10 11 51 -5 65 -17 9 -7 11 -23 7
-49 -6 -37 -6 -38 25 -37 18 1 36 -3 41 -8 14 -15 14 -57 0 -97 -13 -34 -17
-37 -55 -38 -22 -1 -44 -1 -49 0 -10 2 -26 -18 -26 -33 0 -5 25 -6 58 -2 31 4
68 8 82 9 14 1 31 8 39 15 16 15 106 8 128 -10 9 -7 13 -7 13 1 0 7 9 9 23 7
44 -10 238 -16 458 -16 221 1 247 1 272 -1 22 -2 520 12 567 16 25 2 65 7 90
12 49 10 80 7 80 -8 0 -5 4 -9 10 -9 5 0 7 7 4 15 -5 12 3 15 40 15 55 0 62
-2 58 -15 -2 -5 0 -7 4 -2 4 4 15 0 24 -8 15 -14 17 -13 15 3 0 9 -4 23 -9 30
-5 9 -1 10 16 4 32 -11 51 -9 56 6 3 9 -23 12 -105 13 -112 1 -194 14 -123 20
19 1 47 2 63 1 15 -1 27 2 27 8 0 5 -12 10 -27 10 -51 0 -17 8 62 14 59 5 83
11 93 24 11 15 14 15 22 2 5 -8 10 -18 10 -22 0 -5 6 -8 14 -8 8 0 13 8 12 17
0 10 7 18 19 20 l20 3 -20 -9 c-18 -9 -18 -10 -2 -10 22 -1 57 16 57 28 0 5
-10 7 -21 4 -15 -4 -27 0 -35 12 -13 18 -14 18 -34 0 -11 -10 -20 -15 -20 -10
0 4 8 14 18 21 14 12 15 15 2 23 -8 5 -19 7 -25 5 -5 -3 -1 2 10 11 19 16 19
16 -10 9 -16 -4 -35 -10 -40 -15 -6 -4 -17 -4 -25 1 -8 6 -19 10 -25 10 -5 0
-3 -5 5 -10 13 -8 13 -10 -2 -10 -9 0 -23 -3 -31 -6 -21 -8 -27 27 -8 49 13
16 13 17 -2 12 -19 -8 -31 -40 -21 -56 4 -8 0 -9 -15 -4 -11 3 -21 2 -21 -3 0
-5 -19 -7 -42 -5 -49 5 -89 36 -71 54 8 8 13 8 17 0 4 -6 15 -11 24 -11 16 1
16 2 0 14 -10 7 -15 15 -12 19 11 11 -28 44 -47 40 -21 -6 -26 12 -6 20 7 3 5
6 -5 6 -10 1 -18 -3 -18 -9 0 -17 -18 -11 -23 7 -4 14 -5 12 -6 -4 -1 -15 5
-23 15 -23 10 0 14 -5 10 -15 -4 -12 0 -14 19 -9 28 7 30 0 12 -33 -12 -23
-13 -22 -32 13 -10 19 -24 33 -31 30 -7 -3 -14 4 -17 15 -3 10 -13 22 -24 25
-10 3 -26 10 -35 15 -22 11 -28 11 -28 0 0 -5 14 -14 32 -20 39 -14 31 -25
-11 -16 -25 5 -31 12 -31 32 0 22 -4 25 -25 21 -19 -4 -23 -2 -15 7 6 7 12 30
14 50 2 21 9 41 16 45 10 6 9 9 -1 13 -10 4 -10 6 -1 6 6 1 12 6 12 12 0 6 -7
9 -15 5 -11 -4 -15 1 -15 17 0 43 11 65 30 60 22 -6 37 15 16 23 -11 4 -16 19
-16 50 0 26 -5 44 -11 44 -8 0 -8 4 0 14 8 10 9 16 1 21 -20 13 -10 35 17 35
l26 0 -22 19 c-19 17 -21 23 -11 41 6 12 9 33 6 46 -4 13 -1 45 5 71 14 63 13
104 -3 115 -8 6 0 7 24 5 21 -3 35 -1 32 4 -3 5 2 9 10 9 9 0 16 4 16 8 0 5
-14 6 -31 4 -34 -5 -49 9 -48 43 l0 20 12 -20 c7 -11 20 -21 30 -21 20 -2 23
14 4 22 -7 2 -13 20 -14 39 -1 19 3 32 8 29 5 -3 9 -16 9 -30 0 -14 7 -27 15
-31 22 -8 30 4 16 21 -9 10 -9 16 -1 21 16 10 -7 35 -31 35 -11 0 -19 4 -19
10 0 5 13 7 30 4 29 -6 42 7 21 20 -12 8 -2 46 13 46 6 1 0 9 -13 20 -12 11
-26 18 -30 15 -4 -2 -6 6 -5 18 1 12 3 31 4 42 1 12 6 5 12 -17 12 -46 33 -52
23 -7 -4 17 -8 53 -9 80 -3 45 -1 49 21 49 22 0 27 10 26 49 -1 9 7 11 27 7
32 -6 34 -3 45 77 3 27 12 50 19 53 8 3 24 26 37 51 13 25 29 48 36 50 7 3 13
13 13 22 0 9 20 42 45 75 57 76 70 139 34 171 -13 11 -41 42 -61 69 -21 27
-63 67 -95 91 -32 23 -64 49 -72 58 -7 10 -18 17 -23 17 -5 0 -21 12 -36 26
-15 14 -39 33 -54 42 -16 9 -28 20 -28 24 0 19 36 5 84 -34 148 -121 215 -181
212 -187 -2 -3 12 -7 32 -9 36 -2 43 -6 117 -61 54 -41 96 -64 103 -57 3 3 3
7 1 9 -2 2 -31 26 -64 53 -33 28 -72 59 -87 69 -15 9 -25 21 -22 26 3 5 2 8
-3 7 -13 -5 -84 43 -78 53 4 5 0 6 -8 4 -16 -7 -119 73 -112 86 7 10 -44 57
-104 97 -35 24 -91 67 -125 97 -6 6 -31 26 -56 45 -25 19 -46 38 -48 42 -3 8
-92 12 -92 5z m-941 -333 c-2 -88 -20 -161 -38 -156 -6 1 -11 -5 -11 -13 0 -9
6 -12 15 -9 11 5 15 -1 15 -25 0 -17 -5 -31 -11 -31 -6 0 -9 7 -6 15 5 11 -1
13 -26 9 -18 -3 -37 -7 -44 -9 -6 -2 -14 -1 -17 2 -13 13 -55 11 -60 -3 -4
-11 0 -13 19 -8 15 4 25 2 25 -5 0 -6 -6 -11 -12 -11 -24 0 -39 -16 -44 -46
-3 -19 -1 -24 4 -16 9 13 69 31 105 32 10 0 17 -8 17 -20 0 -11 6 -20 14 -20
9 0 12 -12 10 -41 -1 -23 -6 -44 -10 -47 -4 -4 -5 0 -2 8 11 30 -18 51 -79 60
-33 4 -62 4 -68 -1 -5 -5 0 -9 13 -9 12 0 22 -4 22 -10 0 -5 -9 -10 -19 -10
-28 0 -37 -20 -12 -27 12 -3 21 -12 21 -19 0 -16 16 -19 24 -5 7 11 75 -7 98
-27 27 -22 38 -6 31 47 -7 63 10 74 36 24 11 -21 20 -34 21 -30 0 4 -7 22 -16
38 -8 17 -14 32 -12 34 7 7 68 -60 101 -110 38 -58 45 -74 56 -133 7 -34 5
-44 -8 -52 -10 -6 -11 -10 -3 -10 6 0 12 -10 12 -22 0 -12 -3 -18 -7 -15 -3 4
-12 2 -20 -5 -18 -15 -29 -2 -38 42 -7 34 -6 34 9 15 16 -19 17 -19 10 14 -6
31 -4 33 15 28 11 -3 21 -1 21 3 0 5 -10 10 -21 12 -12 2 -25 13 -30 25 -7 20
-6 21 17 12 20 -7 25 -6 22 3 -3 7 -15 14 -27 16 -12 2 -27 14 -33 28 -14 30
-28 32 -20 2 6 -24 -7 -20 -45 15 -13 11 -23 16 -23 10 0 -13 -52 -36 -59 -26
-3 4 -17 9 -30 11 -16 3 -21 0 -16 -9 5 -8 4 -10 -3 -5 -6 4 -8 14 -5 24 6 15
5 15 -10 3 -12 -9 -17 -10 -17 -2 0 6 -8 15 -17 18 -10 4 -24 14 -31 22 -8 9
-11 10 -7 4 3 -7 3 -13 0 -13 -3 0 -13 16 -21 36 -8 20 -24 38 -35 41 -19 5
-28 33 -10 33 5 0 14 13 19 29 6 15 26 45 46 65 32 32 35 38 24 56 -11 18 -10
23 6 36 11 8 35 14 53 14 18 0 33 3 33 8 0 12 -62 12 -77 0 -7 -6 -17 -7 -21
-3 -4 4 -1 10 7 13 10 3 11 6 1 12 -7 5 -10 15 -6 25 5 14 14 16 46 12 36 -5
40 -3 40 16 0 34 20 97 30 97 11 0 1 -91 -11 -104 -12 -13 -11 -26 0 -26 5 0
11 9 14 21 3 13 12 19 24 17 15 -2 18 5 21 42 3 49 8 70 17 70 4 0 5 -39 4
-86z m501 26 c0 -6 -7 -22 -16 -35 -15 -24 -15 -25 4 -25 11 0 27 10 36 23 17
22 17 22 6 0 -6 -12 -17 -26 -26 -31 -30 -17 14 -23 52 -7 38 15 47 30 12 19
-21 -6 -21 -6 -5 10 9 10 22 26 27 37 6 10 15 19 19 19 13 0 7 -40 -14 -88
-16 -35 -22 -41 -42 -36 -29 8 -30 -2 -2 -16 15 -9 24 -8 35 1 12 10 13 9 8
-6 -5 -13 -4 -16 4 -11 7 4 12 2 12 -4 0 -6 -11 -16 -25 -22 -20 -9 -33 -8
-65 7 -37 17 -49 42 -13 28 11 -4 14 -2 11 8 -4 10 -19 13 -49 12 -31 -2 -40
1 -29 7 10 7 11 10 3 10 -8 0 -13 15 -13 40 0 25 5 40 13 41 10 0 10 2 0 6
-25 10 -12 23 22 23 19 0 35 -5 35 -10z m621 -120 c5 0 9 -7 9 -15 0 -8 6 -15
13 -15 7 0 17 -15 22 -32 7 -23 15 -32 27 -30 14 2 21 -8 30 -42 7 -28 18 -46
30 -49 10 -3 18 -11 17 -19 0 -10 -2 -10 -6 0 -2 6 -12 12 -20 12 -11 0 -13
-4 -6 -12 6 -7 13 -25 17 -40 5 -20 13 -28 29 -28 20 -1 21 -2 5 -14 -22 -16
-23 -30 -3 -22 23 8 18 -2 -15 -36 -17 -16 -37 -28 -44 -25 -17 7 -26 -14 -25
-51 1 -17 3 -21 6 -9 2 9 13 17 24 17 10 0 19 4 19 9 0 5 8 11 18 15 9 3 24 9
32 12 8 3 7 0 -3 -6 -14 -9 -17 -19 -12 -43 4 -18 11 -36 15 -40 11 -12 1 -45
-16 -51 -8 -3 -14 -1 -14 4 0 6 6 10 13 11 8 0 8 2 -2 6 -11 5 -11 7 0 14 11
7 10 11 -6 23 -11 9 -14 16 -7 16 6 0 12 5 12 11 0 6 -12 9 -27 7 -21 -2 -29
-9 -31 -27 -3 -21 -1 -23 22 -17 22 5 25 3 23 -15 -2 -12 -12 -28 -22 -35 -14
-11 -18 -25 -16 -57 l2 -42 -46 3 c-50 4 -52 17 -3 17 17 0 33 5 35 11 5 15
-54 26 -75 15 -10 -5 -31 -7 -47 -4 l-30 5 23 -17 c12 -9 22 -25 22 -36 0 -26
-41 -43 -56 -23 -6 8 -17 14 -24 14 -8 0 -4 -11 12 -27 19 -21 24 -33 18 -48
-4 -11 -3 -28 2 -39 9 -16 7 -18 -16 -14 -28 6 -29 4 -16 -27 7 -18 8 -19 15
-2 12 29 36 21 29 -10 -4 -22 -3 -25 5 -13 9 13 11 13 11 -2 0 -14 -10 -17
-62 -18 -400 -2 -515 -2 -710 4 -125 4 -238 11 -250 16 -17 7 4 9 75 7 78 -2
97 0 97 11 0 10 -8 13 -25 10 -14 -3 -28 -1 -31 3 -3 5 2 9 10 9 35 0 13 16
-24 17 -43 2 -55 -13 -17 -20 19 -4 18 -4 -5 -6 -25 -1 -28 3 -28 28 l0 29 78
-5 c42 -3 78 -7 80 -8 2 -1 -4 -10 -13 -19 -9 -9 -11 -16 -5 -16 6 0 10 -8 8
-17 -2 -13 5 -19 25 -21 15 -2 27 1 27 7 0 6 -7 11 -15 11 -22 0 -22 115 1
124 31 12 44 6 44 -19 0 -14 -2 -25 -4 -25 -2 0 -13 -3 -23 -6 -15 -5 -16 -4
-3 6 13 10 13 11 0 7 -8 -2 -15 -10 -15 -18 0 -11 17 -14 68 -15 75 -2 86 -6
67 -29 -10 -12 -10 -15 0 -15 10 0 10 -3 0 -15 -11 -13 -9 -15 19 -13 33 2 55
18 27 18 -9 0 -16 5 -16 10 0 6 6 10 14 10 7 0 19 6 25 14 9 11 7 12 -12 9
-17 -3 -26 1 -31 12 -6 16 0 17 71 11 43 -4 96 -10 118 -12 22 -3 52 -5 68 -4
15 0 27 -5 27 -11 0 -6 -17 -9 -42 -7 -37 2 -43 0 -44 -17 -1 -29 7 -39 17
-24 6 10 9 11 9 2 0 -8 14 -13 35 -13 28 0 35 4 35 20 0 21 15 27 25 10 9 -15
25 -12 25 5 0 8 8 15 18 14 10 0 12 -3 5 -6 -26 -10 -12 -23 25 -24 l37 -2
-40 -7 c-35 -6 -32 -7 29 -9 58 -1 67 1 62 15 -3 8 -2 13 2 10 4 -2 8 35 8 82
1 114 28 198 48 146 3 -8 2 -12 -4 -9 -6 3 -7 -1 -4 -9 3 -9 9 -16 13 -16 8 0
58 51 53 53 -2 1 0 10 3 19 9 22 -20 52 -40 44 -8 -3 -15 -1 -15 4 0 5 -13 16
-30 25 -31 16 -39 39 -17 49 8 3 7 8 -5 16 -10 6 -18 18 -18 26 0 9 -5 12 -12
8 -8 -5 -9 -2 -3 12 4 10 7 27 7 37 0 9 4 17 9 17 13 0 79 69 79 83 0 6 2 8 5
5 3 -2 -4 -33 -16 -69 -16 -48 -18 -68 -10 -81 6 -10 11 -29 11 -42 0 -27 -16
-44 -22 -24 -3 8 -6 7 -10 -3 -9 -23 30 -21 43 2 6 11 8 27 5 35 -3 8 2 30 11
49 13 28 23 35 47 36 17 1 42 5 56 9 20 6 16 8 -23 9 -29 1 -46 5 -42 11 3 6
-1 10 -9 10 -9 0 -16 9 -16 20 0 16 7 20 33 21 26 0 28 2 12 8 -11 5 -23 7
-28 4 -4 -2 -10 3 -13 11 -3 9 -13 16 -21 16 -11 0 -14 6 -9 23 3 12 6 37 6
55 0 17 3 31 8 31 21 -4 32 3 32 18 0 9 7 24 16 34 19 21 11 39 -19 40 -20 1
-20 2 3 8 14 4 26 12 26 19 4 36 8 32 11 -10 2 -27 8 -48 14 -48z m-345 -956
c105 -5 112 -7 122 -29 6 -13 25 -31 42 -40 17 -9 28 -20 25 -25 -12 -19 -38
-9 -72 26 -41 44 -25 42 -410 48 l-301 4 -12 -27 c-6 -16 -22 -33 -36 -39 -23
-11 -24 -15 -24 -119 0 -106 -6 -153 -19 -153 -3 0 -3 60 0 132 3 73 4 139 2
146 -3 6 -1 12 5 12 13 0 72 49 71 58 -1 4 -1 9 0 12 1 7 465 2 607 -6z
m-1739 -326 c9 -11 11 -18 5 -18 -7 0 -12 5 -12 10 0 6 -4 10 -10 10 -5 0 -9
-5 -7 -11 2 -11 -103 -52 -112 -44 -2 2 -10 -2 -18 -10 -8 -8 -23 -15 -33 -15
-10 0 -25 -9 -33 -20 -8 -11 -17 -17 -20 -13 -4 3 1 15 10 25 17 19 16 19 -11
12 -16 -4 -42 -22 -59 -40 -16 -19 -35 -34 -42 -34 -19 0 -28 35 -21 75 8 39
20 51 61 60 30 7 30 7 -12 -32 -24 -21 -43 -42 -43 -47 0 -5 12 4 28 19 15 15
37 34 50 43 28 18 132 43 132 32 0 -5 -6 -11 -12 -13 -7 -3 -1 -6 15 -6 15 -1
27 -6 27 -12 0 -5 -5 -7 -12 -3 -7 4 -8 3 -4 -4 11 -18 33 -3 32 21 -1 16 5
22 21 22 12 0 24 3 27 6 12 11 36 5 53 -13z m608 -320 c-9 -43 -23 -57 -35
-38 -8 13 -10 12 -10 -4 0 -13 5 -17 20 -13 11 3 20 2 20 -3 0 -4 16 -11 35
-14 19 -4 35 -10 35 -14 0 -10 -62 -8 -79 2 -11 7 -11 4 -1 -15 17 -33 16 -32
37 -21 12 7 22 6 30 -3 9 -10 6 -15 -13 -23 -13 -7 -31 -9 -41 -5 -9 4 -14 2
-10 -3 6 -11 -35 -14 -43 -3 -3 4 -17 -1 -30 -12 -14 -11 -18 -17 -9 -14 19 7
34 -21 15 -28 -6 -3 -28 -3 -47 -1 -18 2 -29 0 -24 -4 16 -11 16 -32 1 -26 -7
3 -24 -7 -36 -23 l-23 -28 8 50 c4 28 7 60 6 73 0 12 4 22 10 22 6 0 8 7 5 16
-5 14 -4 15 8 5 12 -10 13 -8 9 10 -4 15 -3 20 5 15 7 -4 12 -1 12 9 0 9 5 13
10 10 6 -3 10 -1 10 4 0 6 3 10 8 9 20 -4 39 15 35 36 -3 13 1 27 8 31 9 6 11
3 6 -11 -7 -17 -6 -18 6 -2 12 15 15 15 28 3 13 -13 15 -12 17 11 1 14 -2 23
-8 19 -6 -3 -10 -1 -10 4 0 6 9 11 21 11 18 0 20 -4 14 -32z m-850 -58 c-5
-24 -5 -24 10 -5 9 11 20 20 25 20 16 0 51 35 45 45 -9 15 51 12 92 -5 36 -15
36 -15 17 -37 -16 -19 -16 -20 -1 -9 14 11 17 11 17 0 0 -11 2 -11 10 1 8 12
10 9 10 -12 0 -16 -5 -28 -11 -28 -5 0 -7 5 -4 10 3 6 1 10 -4 10 -6 0 -11 -7
-11 -15 0 -8 7 -15 15 -15 26 0 16 -17 -17 -28 l-33 -11 33 5 c39 7 41 -6 5
-28 -16 -10 -22 -18 -15 -18 21 0 13 -18 -10 -23 -19 -4 -18 -5 7 -7 l30 -3
-35 -7 -35 -7 36 -2 c41 -1 59 -16 59 -47 0 -20 -4 -22 -40 -19 -23 3 -45 7
-50 10 -6 4 -10 2 -10 -4 0 -6 -26 -8 -67 -6 -38 3 -78 5 -91 5 -21 0 -23 3
-18 43 3 23 5 63 5 90 1 40 4 47 21 47 11 0 20 -4 20 -10 0 -5 5 -10 10 -10 6
0 10 9 10 19 0 15 -6 19 -30 17 -30 -2 -37 4 -23 18 4 4 6 22 4 41 -1 19 1 40
5 47 11 17 26 -40 19 -72z m198 -379 c34 -1 37 -3 37 -32 0 -18 -4 -28 -10
-24 -13 8 -112 -4 -106 -13 2 -4 -36 -3 -85 2 -88 9 -89 10 -89 37 0 33 17 37
135 33 44 -1 97 -3 118 -3z"/>
<path d="M1730 1722 c19 -17 33 -32 30 -35 -3 -3 -27 -1 -55 4 -33 6 -51 6
-53 -1 -2 -5 -24 -10 -48 -10 -29 0 -46 -5 -50 -14 -3 -8 -12 -17 -20 -20 -12
-5 -12 -2 -3 17 12 21 11 21 -8 5 -11 -10 -26 -18 -35 -18 -20 0 -73 -27 -88
-45 -7 -8 -10 -26 -8 -40 5 -24 -26 -67 -40 -55 -7 6 -22 -47 -15 -54 3 -3 19
4 35 15 27 20 30 20 73 3 51 -19 108 -71 100 -92 -2 -7 -1 -11 3 -8 4 3 13 -4
20 -15 7 -10 8 -19 3 -19 -6 0 1 -12 15 -27 28 -30 39 -65 30 -90 -4 -10 18 8
49 39 57 60 65 77 40 98 -13 10 -12 14 2 28 9 10 20 18 25 18 4 1 13 2 18 3 6
0 10 5 10 11 0 5 -8 6 -17 3 -17 -6 -17 -6 -1 10 9 9 21 17 27 17 7 0 9 9 6
23 -3 12 1 40 10 61 9 21 15 40 13 41 -2 2 -19 7 -38 12 l-35 9 43 7 c23 4 42
11 42 16 0 25 -56 103 -84 117 l-31 16 35 -30z"/>
<path d="M347 329 c-13 -8 -15 -14 -7 -30 12 -21 5 -41 -13 -38 -22 4 -56 -16
-49 -28 8 -13 115 -17 216 -7 40 4 66 3 63 -3 -3 -5 42 -10 104 -12 94 -2 109
0 109 13 0 19 -20 22 -20 4 0 -7 -5 -5 -11 4 -8 15 -19 17 -71 12 -73 -7 -210
4 -202 17 3 5 -10 9 -28 9 -25 0 -29 -3 -18 -10 12 -8 10 -9 -7 -7 -31 4 -40
16 -23 28 13 8 13 10 0 19 -8 5 -10 10 -4 10 5 0 14 -4 20 -10 16 -16 104 -25
104 -11 0 7 -8 10 -19 6 -10 -3 -26 -2 -36 2 -18 6 -18 7 1 15 16 7 15 8 -5 4
-13 -3 -37 2 -52 10 -33 16 -29 16 -52 3z"/>
<path d="M4410 179 c0 -7 -8 -18 -17 -25 -16 -12 -14 -13 19 -14 20 0 38 5 41
13 3 9 7 9 20 -2 11 -8 17 -9 17 -3 0 7 17 9 49 6 27 -3 52 -1 55 4 3 6 23 6
48 2 37 -7 136 -7 361 -1 27 0 46 5 43 10 -3 5 -108 9 -233 10 -126 1 -257 3
-293 6 -44 3 -67 1 -73 -8 -7 -9 -10 -9 -14 1 -6 15 -23 16 -23 1z"/>
</g>
</svg>
